<?xml version="1.0" encoding="UTF-8"?>
<svg width="512" height="512" viewBox="0 0 512 512" fill="none" xmlns="http://www.w3.org/2000/svg">
  <!-- Outer glow -->
  <filter id="glow" x="-50%" y="-50%" width="200%" height="200%">
    <feGaussianBlur stdDeviation="15" result="blur"/>
    <feComposite in="SourceGraphic" in2="blur" operator="over"/>
  </filter>
  
  <!-- Background elements -->
  <circle cx="256" cy="256" r="240" fill="#d32f2f" opacity="0.1"/>
  <circle cx="256" cy="256" r="220" stroke="#d32f2f" stroke-width="1" opacity="0.2"/>
  
  <!-- Main blood drop with gradient -->
  <defs>
    <linearGradient id="drop-gradient" x1="0%" y1="0%" x2="100%" y2="100%">
      <stop offset="0%" stop-color="#ff1744"/>
      <stop offset="100%" stop-color="#d32f2f"/>
    </linearGradient>
  </defs>
  
  <!-- Main blood drop shape -->
  <path d="M256 32C256 32 384 160 384 256C384 352 320 416 256 416C192 416 128 352 128 256C128 160 256 32 256 32Z" 
        fill="url(#drop-gradient)"
        filter="url(#glow)"/>
  
  <!-- Shine effect -->
  <path d="M256 32C256 32 384 160 384 256C384 352 320 416 256 416C192 416 128 352 128 256C128 160 256 32 256 32Z" 
        fill="url(#paint0_radial)" 
        fill-opacity="0.3"/>
  
  <!-- Inner glow -->
  <path d="M256 32C256 32 384 160 384 256C384 352 320 416 256 416C192 416 128 352 128 256C128 160 256 32 256 32Z" 
        fill="url(#paint1_radial)" 
        fill-opacity="0.2"/>
  
  <!-- Medical cross with gradient -->
  <defs>
    <linearGradient id="cross-gradient" x1="0%" y1="0%" x2="100%" y2="100%">
      <stop offset="0%" stop-color="#ffffff"/>
      <stop offset="100%" stop-color="#ffebee"/>
    </linearGradient>
  </defs>
  
  <!-- Cross with glow -->
  <g filter="url(#glow)">
    <path d="M256 200L256 312" 
          stroke="url(#cross-gradient)" 
          stroke-width="16" 
          stroke-linecap="round"/>
    <path d="M200 256L312 256" 
          stroke="url(#cross-gradient)" 
          stroke-width="16" 
          stroke-linecap="round"/>
  </g>
  
  <!-- Decorative elements -->
  <circle cx="256" cy="256" r="180" 
          stroke="white" 
          stroke-width="2" 
          stroke-dasharray="10 5" 
          opacity="0.3"/>
  <circle cx="256" cy="256" r="200" 
          stroke="white" 
          stroke-width="1" 
          stroke-dasharray="5 5" 
          opacity="0.2"/>
  
  <!-- Pulse rings -->
  <circle cx="256" cy="256" r="220" 
          stroke="#d32f2f" 
          stroke-width="2" 
          opacity="0.1">
    <animate attributeName="r" 
             values="220;240;220" 
             dur="2s" 
             repeatCount="indefinite"/>
    <animate attributeName="opacity" 
             values="0.1;0.2;0.1" 
             dur="2s" 
             repeatCount="indefinite"/>
  </circle>
  
  <defs>
    <radialGradient id="paint0_radial" cx="0" cy="0" r="1" gradientUnits="userSpaceOnUse" gradientTransform="translate(256 256) rotate(90) scale(192)">
      <stop offset="0.5" stop-color="white"/>
      <stop offset="1" stop-color="white" stop-opacity="0"/>
    </radialGradient>
    <radialGradient id="paint1_radial" cx="0" cy="0" r="1" gradientUnits="userSpaceOnUse" gradientTransform="translate(256 256) rotate(90) scale(192)">
      <stop offset="0.3" stop-color="white"/>
      <stop offset="1" stop-color="white" stop-opacity="0"/>
    </radialGradient>
  </defs>
</svg> 